<svg xmlns="http://www.w3.org/2000/svg" width="1200" height="740" viewBox="0 0 1200 740">
  <defs>
    <marker id="arrow" markerWidth="10" markerHeight="10" refX="9" refY="3" orient="auto" markerUnits="strokeWidth">
      <path d="M0,0 L0,6 L9,3 z" fill="#6b7280" />
    </marker>
  </defs>
  <rect width="1200" height="740" fill="#ffffff" />
  <text x="40" y="24" font-size="22" font-weight="bold" fill="#111827" font-family="Arial, sans-serif">Open Accreditation System - logical entity relationship diagram</text>
  <text x="40" y="46" font-size="12" fill="#4b5563" font-family="Arial, sans-serif">High-signal ERD showing primary governed entities and core relationships derived from repository architecture.</text>
  <line x1="120" y1="96" x2="120" y2="140" stroke="#6b7280" stroke-width="1.5" marker-end="url(#arrow)" /><text x="120.0" y="114.0" font-size="11" fill="#374151" text-anchor="middle">1:N</text><line x1="120" y1="96" x2="120" y2="240" stroke="#6b7280" stroke-width="1.5" marker-end="url(#arrow)" /><text x="120.0" y="164.0" font-size="11" fill="#374151" text-anchor="middle">1:N</text><line x1="120" y1="96" x2="120" y2="340" stroke="#6b7280" stroke-width="1.5" marker-end="url(#arrow)" /><text x="120.0" y="214.0" font-size="11" fill="#374151" text-anchor="middle">1:N</text><line x1="200" y1="68" x2="260" y2="568" stroke="#6b7280" stroke-width="1.5" marker-end="url(#arrow)" /><text x="230.0" y="314.0" font-size="11" fill="#374151" text-anchor="middle">1:N</text><line x1="200" y1="68" x2="520" y2="368" stroke="#6b7280" stroke-width="1.5" marker-end="url(#arrow)" /><text x="360.0" y="214.0" font-size="11" fill="#374151" text-anchor="middle">1:N</text><line x1="200" y1="68" x2="1000" y2="468" stroke="#6b7280" stroke-width="1.5" marker-end="url(#arrow)" /><text x="600.0" y="264.0" font-size="11" fill="#374151" text-anchor="middle">1:N</text><line x1="340" y1="96" x2="340" y2="140" stroke="#6b7280" stroke-width="1.5" marker-end="url(#arrow)" /><text x="340.0" y="114.0" font-size="11" fill="#374151" text-anchor="middle">1:N</text><line x1="340" y1="196" x2="340" y2="240" stroke="#6b7280" stroke-width="1.5" marker-end="url(#arrow)" /><text x="340.0" y="214.0" font-size="11" fill="#374151" text-anchor="middle">1:N</text><line x1="340" y1="296" x2="340" y2="340" stroke="#6b7280" stroke-width="1.5" marker-end="url(#arrow)" /><text x="340.0" y="314.0" font-size="11" fill="#374151" text-anchor="middle">1:N</text><line x1="340" y1="396" x2="340" y2="440" stroke="#6b7280" stroke-width="1.5" marker-end="url(#arrow)" /><text x="340.0" y="414.0" font-size="11" fill="#374151" text-anchor="middle">1:N</text><line x1="340" y1="296" x2="340" y2="540" stroke="#6b7280" stroke-width="1.5" marker-end="url(#arrow)" /><text x="340.0" y="414.0" font-size="11" fill="#374151" text-anchor="middle">1:N</text><line x1="420" y1="568" x2="520" y2="68" stroke="#6b7280" stroke-width="1.5" marker-end="url(#arrow)" /><text x="470.0" y="314.0" font-size="11" fill="#374151" text-anchor="middle">1:N</text><line x1="600" y1="96" x2="600" y2="140" stroke="#6b7280" stroke-width="1.5" marker-end="url(#arrow)" /><text x="600.0" y="114.0" font-size="11" fill="#374151" text-anchor="middle">1:N</text><line x1="600" y1="96" x2="600" y2="240" stroke="#6b7280" stroke-width="1.5" marker-end="url(#arrow)" /><text x="600.0" y="164.0" font-size="11" fill="#374151" text-anchor="middle">1:N</text><line x1="600" y1="396" x2="600" y2="440" stroke="#6b7280" stroke-width="1.5" marker-end="url(#arrow)" /><text x="600.0" y="414.0" font-size="11" fill="#374151" text-anchor="middle">1:N</text><line x1="600" y1="396" x2="600" y2="540" stroke="#6b7280" stroke-width="1.5" marker-end="url(#arrow)" /><text x="600.0" y="464.0" font-size="11" fill="#374151" text-anchor="middle">1:N</text><line x1="420" y1="568" x2="760" y2="68" stroke="#6b7280" stroke-width="1.5" marker-end="url(#arrow)" /><text x="590.0" y="314.0" font-size="11" fill="#374151" text-anchor="middle">1:N</text><line x1="680" y1="568" x2="760" y2="68" stroke="#6b7280" stroke-width="1.5" marker-end="url(#arrow)" /><text x="720.0" y="314.0" font-size="11" fill="#374151" text-anchor="middle">1:N</text><line x1="840" y1="96" x2="840" y2="140" stroke="#6b7280" stroke-width="1.5" marker-end="url(#arrow)" /><text x="840.0" y="114.0" font-size="11" fill="#374151" text-anchor="middle">1:N</text><line x1="840" y1="196" x2="840" y2="240" stroke="#6b7280" stroke-width="1.5" marker-end="url(#arrow)" /><text x="840.0" y="214.0" font-size="11" fill="#374151" text-anchor="middle">1:N</text><line x1="420" y1="568" x2="760" y2="368" stroke="#6b7280" stroke-width="1.5" marker-end="url(#arrow)" /><text x="590.0" y="464.0" font-size="11" fill="#374151" text-anchor="middle">1:N</text><line x1="840" y1="396" x2="840" y2="440" stroke="#6b7280" stroke-width="1.5" marker-end="url(#arrow)" /><text x="840.0" y="414.0" font-size="11" fill="#374151" text-anchor="middle">1:N</text><line x1="840" y1="496" x2="840" y2="540" stroke="#6b7280" stroke-width="1.5" marker-end="url(#arrow)" /><text x="840.0" y="514.0" font-size="11" fill="#374151" text-anchor="middle">1:N</text><line x1="420" y1="568" x2="1000" y2="68" stroke="#6b7280" stroke-width="1.5" marker-end="url(#arrow)" /><text x="710.0" y="314.0" font-size="11" fill="#374151" text-anchor="middle">1:N</text><line x1="1080" y1="96" x2="1080" y2="140" stroke="#6b7280" stroke-width="1.5" marker-end="url(#arrow)" /><text x="1080.0" y="114.0" font-size="11" fill="#374151" text-anchor="middle">1:N</text><line x1="420" y1="568" x2="1000" y2="268" stroke="#6b7280" stroke-width="1.5" marker-end="url(#arrow)" /><text x="710.0" y="414.0" font-size="11" fill="#374151" text-anchor="middle">1:N</text><line x1="920" y1="468" x2="1000" y2="368" stroke="#6b7280" stroke-width="1.5" marker-end="url(#arrow)" /><text x="960.0" y="414.0" font-size="11" fill="#374151" text-anchor="middle">1:N</text><line x1="1080" y1="496" x2="1080" y2="540" stroke="#6b7280" stroke-width="1.5" marker-end="url(#arrow)" /><text x="1080.0" y="514.0" font-size="11" fill="#374151" text-anchor="middle">1:N</text><line x1="680" y1="268" x2="1000" y2="168" stroke="#6b7280" stroke-width="1.5" marker-end="url(#arrow)" /><text x="840.0" y="214.0" font-size="11" fill="#374151" text-anchor="middle">N:1</text><line x1="420" y1="468" x2="1000" y2="168" stroke="#6b7280" stroke-width="1.5" marker-end="url(#arrow)" /><text x="710.0" y="314.0" font-size="11" fill="#374151" text-anchor="middle">1:N</text><line x1="420" y1="468" x2="520" y2="268" stroke="#6b7280" stroke-width="1.5" marker-end="url(#arrow)" /><text x="470.0" y="364.0" font-size="11" fill="#374151" text-anchor="middle">1:N</text><line x1="600" y1="396" x2="340" y2="540" stroke="#6b7280" stroke-width="1.5" marker-end="url(#arrow)" /><text x="470.0" y="464.0" font-size="11" fill="#374151" text-anchor="middle">N:M scope</text>
  <rect x="40" y="40" width="160" height="56" rx="10" ry="10" fill="#e8f0fe" stroke="#374151" stroke-width="1.5" /><text x="120" y="72" font-size="14" fill="#111827" text-anchor="middle" font-family="Arial, sans-serif">Institution</text><rect x="40" y="140" width="160" height="56" rx="10" ry="10" fill="#e8f0fe" stroke="#374151" stroke-width="1.5" /><text x="120" y="172" font-size="14" fill="#111827" text-anchor="middle" font-family="Arial, sans-serif">OrganizationUnit</text><rect x="40" y="240" width="160" height="56" rx="10" ry="10" fill="#f3e8ff" stroke="#374151" stroke-width="1.5" /><text x="120" y="272" font-size="14" fill="#111827" text-anchor="middle" font-family="Arial, sans-serif">User</text><rect x="40" y="340" width="160" height="56" rx="10" ry="10" fill="#e8f0fe" stroke="#374151" stroke-width="1.5" /><text x="120" y="372" font-size="14" fill="#111827" text-anchor="middle" font-family="Arial, sans-serif">Committee</text><rect x="260" y="40" width="160" height="56" rx="10" ry="10" fill="#fff4e5" stroke="#374151" stroke-width="1.5" /><text x="340" y="72" font-size="14" fill="#111827" text-anchor="middle" font-family="Arial, sans-serif">Accreditor</text><rect x="260" y="140" width="160" height="56" rx="10" ry="10" fill="#fff4e5" stroke="#374151" stroke-width="1.5" /><text x="340" y="172" font-size="14" fill="#111827" text-anchor="middle" font-family="Arial, sans-serif">Framework</text><rect x="260" y="240" width="160" height="56" rx="10" ry="10" fill="#fff4e5" stroke="#374151" stroke-width="1.5" /><text x="340" y="272" font-size="14" fill="#111827" text-anchor="middle" font-family="Arial, sans-serif">FrameworkVersion</text><rect x="260" y="340" width="160" height="56" rx="10" ry="10" fill="#fff4e5" stroke="#374151" stroke-width="1.5" /><text x="340" y="372" font-size="14" fill="#111827" text-anchor="middle" font-family="Arial, sans-serif">Standard</text><rect x="260" y="440" width="160" height="56" rx="10" ry="10" fill="#fff4e5" stroke="#374151" stroke-width="1.5" /><text x="340" y="472" font-size="14" fill="#111827" text-anchor="middle" font-family="Arial, sans-serif">Criterion</text><rect x="260" y="540" width="160" height="56" rx="10" ry="10" fill="#fff4e5" stroke="#374151" stroke-width="1.5" /><text x="340" y="572" font-size="14" fill="#111827" text-anchor="middle" font-family="Arial, sans-serif">Cycle</text><rect x="520" y="40" width="160" height="56" rx="10" ry="10" fill="#e6f4ea" stroke="#374151" stroke-width="1.5" /><text x="600" y="72" font-size="14" fill="#111827" text-anchor="middle" font-family="Arial, sans-serif">EvidenceItem</text><rect x="520" y="140" width="160" height="56" rx="10" ry="10" fill="#e6f4ea" stroke="#374151" stroke-width="1.5" /><text x="600" y="172" font-size="14" fill="#111827" text-anchor="middle" font-family="Arial, sans-serif">EvidenceArtifact</text><rect x="520" y="240" width="160" height="56" rx="10" ry="10" fill="#e6f4ea" stroke="#374151" stroke-width="1.5" /><text x="600" y="272" font-size="14" fill="#111827" text-anchor="middle" font-family="Arial, sans-serif">EvidenceLink</text><rect x="520" y="340" width="160" height="56" rx="10" ry="10" fill="#fce8e6" stroke="#374151" stroke-width="1.5" /><text x="600" y="372" font-size="14" fill="#111827" text-anchor="middle" font-family="Arial, sans-serif">Program</text><rect x="520" y="440" width="160" height="56" rx="10" ry="10" fill="#fce8e6" stroke="#374151" stroke-width="1.5" /><text x="600" y="472" font-size="14" fill="#111827" text-anchor="middle" font-family="Arial, sans-serif">Course</text><rect x="520" y="540" width="160" height="56" rx="10" ry="10" fill="#fce8e6" stroke="#374151" stroke-width="1.5" /><text x="600" y="572" font-size="14" fill="#111827" text-anchor="middle" font-family="Arial, sans-serif">LearningOutcome</text><rect x="760" y="40" width="160" height="56" rx="10" ry="10" fill="#fce8e6" stroke="#374151" stroke-width="1.5" /><text x="840" y="72" font-size="14" fill="#111827" text-anchor="middle" font-family="Arial, sans-serif">AssessmentResult</text><rect x="760" y="140" width="160" height="56" rx="10" ry="10" fill="#fce8e6" stroke="#374151" stroke-width="1.5" /><text x="840" y="172" font-size="14" fill="#111827" text-anchor="middle" font-family="Arial, sans-serif">Finding</text><rect x="760" y="240" width="160" height="56" rx="10" ry="10" fill="#fce8e6" stroke="#374151" stroke-width="1.5" /><text x="840" y="272" font-size="14" fill="#111827" text-anchor="middle" font-family="Arial, sans-serif">ActionPlan</text><rect x="760" y="340" width="160" height="56" rx="10" ry="10" fill="#e8eaed" stroke="#374151" stroke-width="1.5" /><text x="840" y="372" font-size="14" fill="#111827" text-anchor="middle" font-family="Arial, sans-serif">WorkflowTemplate</text><rect x="760" y="440" width="160" height="56" rx="10" ry="10" fill="#e8eaed" stroke="#374151" stroke-width="1.5" /><text x="840" y="472" font-size="14" fill="#111827" text-anchor="middle" font-family="Arial, sans-serif">Submission</text><rect x="760" y="540" width="160" height="56" rx="10" ry="10" fill="#e8eaed" stroke="#374151" stroke-width="1.5" /><text x="840" y="572" font-size="14" fill="#111827" text-anchor="middle" font-family="Arial, sans-serif">WorkflowDecision</text><rect x="1000" y="40" width="160" height="56" rx="10" ry="10" fill="#fff0f6" stroke="#374151" stroke-width="1.5" /><text x="1080" y="72" font-size="14" fill="#111827" text-anchor="middle" font-family="Arial, sans-serif">Narrative</text><rect x="1000" y="140" width="160" height="56" rx="10" ry="10" fill="#fff0f6" stroke="#374151" stroke-width="1.5" /><text x="1080" y="172" font-size="14" fill="#111827" text-anchor="middle" font-family="Arial, sans-serif">NarrativeSection</text><rect x="1000" y="240" width="160" height="56" rx="10" ry="10" fill="#fff0f6" stroke="#374151" stroke-width="1.5" /><text x="1080" y="272" font-size="14" fill="#111827" text-anchor="middle" font-family="Arial, sans-serif">ReportPackage</text><rect x="1000" y="340" width="160" height="56" rx="10" ry="10" fill="#f1f3f4" stroke="#374151" stroke-width="1.5" /><text x="1080" y="372" font-size="14" fill="#111827" text-anchor="middle" font-family="Arial, sans-serif">AuditEvent</text><rect x="1000" y="440" width="160" height="56" rx="10" ry="10" fill="#e0f7fa" stroke="#374151" stroke-width="1.5" /><text x="1080" y="472" font-size="14" fill="#111827" text-anchor="middle" font-family="Arial, sans-serif">SourceSystem</text><rect x="1000" y="540" width="160" height="56" rx="10" ry="10" fill="#e0f7fa" stroke="#374151" stroke-width="1.5" /><text x="1080" y="572" font-size="14" fill="#111827" text-anchor="middle" font-family="Arial, sans-serif">SyncJob</text>
  <rect x="40" y="640" width="18" height="18" fill="#e8f0fe" stroke="#374151" stroke-width="1" /><text x="66" y="654" font-size="12" fill="#111827" font-family="Arial, sans-serif">Organization / Identity</text><rect x="280" y="640" width="18" height="18" fill="#fff4e5" stroke="#374151" stroke-width="1" /><text x="306" y="654" font-size="12" fill="#111827" font-family="Arial, sans-serif">Frameworks</text><rect x="520" y="640" width="18" height="18" fill="#e6f4ea" stroke="#374151" stroke-width="1" /><text x="546" y="654" font-size="12" fill="#111827" font-family="Arial, sans-serif">Evidence</text><rect x="40" y="668" width="18" height="18" fill="#fce8e6" stroke="#374151" stroke-width="1" /><text x="66" y="682" font-size="12" fill="#111827" font-family="Arial, sans-serif">Assessment</text><rect x="280" y="668" width="18" height="18" fill="#e8eaed" stroke="#374151" stroke-width="1" /><text x="306" y="682" font-size="12" fill="#111827" font-family="Arial, sans-serif">Workflow</text><rect x="520" y="668" width="18" height="18" fill="#fff0f6" stroke="#374151" stroke-width="1" /><text x="546" y="682" font-size="12" fill="#111827" font-family="Arial, sans-serif">Reporting</text><rect x="40" y="696" width="18" height="18" fill="#e0f7fa" stroke="#374151" stroke-width="1" /><text x="66" y="710" font-size="12" fill="#111827" font-family="Arial, sans-serif">Integration / Compliance</text>
</svg>
